PathFileType	4	(X/Y/Z)	/Users/itak/Documents/Research/Walk-IL/dataset/trc/00372_00011.trc
DataRate	CameraRate	NumFrames	NumMarkers	Units	OrigDataRate	OrigDataStartFrame	OrigNumFrames
100.000000	100.000000	4	56	mm	100.000000	508	581
Frame#	Time	RPSI			LPSI			L3			STRN			T10			C7			CLAV			RBAK			LBAK			LSHO			LUPA			LAEL			LAOL			LWPS			LFRA			LIFD			LHPS			LHTS			RSHO			RUPA			RAEL			RAOL			RWPS			RFRA			RIFD			RHTS			RHPS			RBHD			LFHD			RFHD			LBHD			LHIP			RHIP			RASI			LASI			LKNE			LTHI			LANK			LTIP			LTOE			LMT1			LMT5			LHEE			RKNE			RTHI			RANK			RTIP			RTOE			RMT1			RMT5			RHEE			LWTS			RWTS			*53			*54			*55			
		X1	Y1	Z1	X2	Y2	Z2	X3	Y3	Z3	X4	Y4	Z4	X5	Y5	Z5	X6	Y6	Z6	X7	Y7	Z7	X8	Y8	Z8	X9	Y9	Z9	X10	Y10	Z10	X11	Y11	Z11	X12	Y12	Z12	X13	Y13	Z13	X14	Y14	Z14	X15	Y15	Z15	X16	Y16	Z16	X17	Y17	Z17	X18	Y18	Z18	X19	Y19	Z19	X20	Y20	Z20	X21	Y21	Z21	X22	Y22	Z22	X23	Y23	Z23	X24	Y24	Z24	X25	Y25	Z25	X26	Y26	Z26	X27	Y27	Z27	X28	Y28	Z28	X29	Y29	Z29	X30	Y30	Z30	X31	Y31	Z31	X32	Y32	Z32	X33	Y33	Z33	X34	Y34	Z34	X35	Y35	Z35	X36	Y36	Z36	X37	Y37	Z37	X38	Y38	Z38	X39	Y39	Z39	X40	Y40	Z40	X41	Y41	Z41	X42	Y42	Z42	X43	Y43	Z43	X44	Y44	Z44	X45	Y45	Z45	X46	Y46	Z46	X47	Y47	Z47	X48	Y48	Z48	X49	Y49	Z49	X50	Y50	Z50	X51	Y51	Z51	X52	Y52	Z52	X53	Y53	Z53	X54	Y54	Z54	X55	Y55	Z55	X56	Y56	Z56	

509	5.08	239.1622467041016	978.3505859375	1020.389282226562	366.5018310546875	975.69873046875	1014.12109375	299.7208862304688	1028.294189453125	1017.067260742188	327.9952392578125	1228.31787109375	1233.94873046875	310.8251953125	1146.945678710938	998.5541381835938	340.7593078613281	1397.621459960938	1024.707641601562	335.3539733886719	1350.91259765625	1183.62255859375	267.1022644042969	1258.490966796875	988.990234375	439.6618347167969	1354.55224609375	1012.593627929688	498.6398620605469	1375.005126953125	1095.7314453125	559.9208374023438	1252.941040039062	1075.4248046875	568.6715087890625	1049.647705078125	1086.906616210938	506.2958374023438	1037.594848632812	1030.90185546875	576.3764038085938	799.784423828125	1154.0634765625	574.3973388671875	944.9970092773438	1104.255615234375	516.5553588867188	653.4827880859375	1215.940185546875	567.00048828125	730.4017944335938	1156.452270507812	540.3751831054688	738.3447875976562	1214.894775390625	177.9645843505859	1395.986450195312	1083.652099609375	112.6702423095703	1333.111206054688	1077.491577148438	60.02388763427734	1070.839111328125	1110.149658203125	146.1493377685547	1053.838500976562	1075.485717773438	25.10295486450195	841.988525390625	1218.374389648438	46.02285003662109	1007.298461914062	1143.632690429688	73.15972900390625	690.7650756835938	1292.169555664062	71.4534912109375	763.7777099609375	1294.87744140625	21.7061882019043	761.6327514648438	1244.931518554688	274.0288696289062	1615.263305664062	1065.868896484375	396.0499572753906	1618.364501953125	1235.012817382812	295.6129150390625	1627.576782226562	1226.56689453125	417.1748352050781	1596.847412109375	1050.9013671875	472.8259887695312	919.8348999023438	1097.697387695312	132.3402709960938	926.3960571289062	1106.448364257812	180.92724609375	956.4766845703125	1208.723266601562	420.7800598144531	949.8116455078125	1219.702758789062	487.2826232910156	467.0519104003906	1140.671997070312	490.1906433105469	605.1836547851562	1143.989624023438	501.973388671875	42.98097229003906	1070.880493164062	507.0206298828125	253.1646575927734	1101.989868164062	436.0340881347656	63.9210090637207	1264.71826171875	395.0012817382812	37.49605560302734	1203.3505859375	511.4700622558594	41.49536514282227	1196.750610351562	434.7013244628906	39.13955307006836	1037.159545898438	127.063720703125	464.8782958984375	1126.417358398438	106.2752151489258	726.6350708007812	1187.500854492188	121.6321258544922	49.47082138061523	1083.098388671875	127.6215362548828	350.1271057128906	1131.3984375	183.6015319824219	47.3319206237793	1273.397094726562	220.8435211181641	41.55576324462891	1215.367553710938	108.1094360351562	37.82546997070312	1184.9697265625	167.3377685546875	50.55327987670898	1031.484497070312	527.2852172851562	816.9019775390625	1199.894409179688	92.48059844970703	858.2212524414062	1251.372314453125	nan	nan	nan	nan	nan	nan	nan	nan	nan	
510	5.09	238.8397674560547	978.3403930664062	1020.985107421875	366.15380859375	975.729248046875	1014.548828125	299.3692932128906	1028.290405273438	1017.573669433594	327.9237976074219	1228.277465820312	1234.430786132812	310.577880859375	1146.892700195312	999.1060791015625	340.3839721679688	1397.621215820312	1025.125732421875	335.1165161132812	1350.911010742188	1184.004760742188	266.870849609375	1258.44873046875	989.4859619140625	439.3258361816406	1354.607421875	1012.886352539062	498.3379211425781	1375.041381835938	1095.992553710938	559.6499633789062	1253.04833984375	1075.499267578125	568.6934204101562	1049.790893554688	1087.2216796875	506.3029479980469	1037.63037109375	1031.0390625	575.7297973632812	800.4511108398438	1156.553466796875	574.2498779296875	945.1870727539062	1105.1826171875	515.3497924804688	655.1131591796875	1220.0478515625	566.175537109375	731.1482543945312	1159.6630859375	539.3856811523438	739.8187866210938	1217.877563476562	177.6726531982422	1395.811157226562	1084.210815429688	112.4894638061523	1332.896118164062	1077.978271484375	60.66161727905273	1070.283447265625	1110.1484375	146.8479766845703	1053.710205078125	1075.421508789062	26.3618106842041	841.0684814453125	1217.656616210938	46.82009124755859	1006.681213378906	1143.471801757812	74.98124694824219	689.5135498046875	1290.600708007812	73.04056549072266	762.5534057617188	1293.692016601562	23.15740013122559	760.5515747070312	1243.792358398438	273.6807250976562	1615.16357421875	1066.253295898438	395.7144165039062	1618.454833984375	1235.246948242188	295.3316040039062	1627.584228515625	1226.9384765625	416.7955932617188	1596.860107421875	1051.1845703125	472.4613342285156	919.7379150390625	1098.195068359375	132.1651000976562	926.3818359375	1107.223510742188	180.894287109375	956.361328125	1209.42626953125	420.6837768554688	949.6720581054688	1219.986083984375	487.2450866699219	467.0866394042969	1140.526977539062	490.1291809082031	605.2354125976562	1143.947387695312	502.0191040039062	42.93017196655273	1070.890014648438	507.1401977539062	253.1643371582031	1101.87548828125	436.0773315429688	64.03163146972656	1264.62646484375	395.0184936523438	37.58078384399414	1203.297241210938	511.5300598144531	41.47223663330078	1196.730102539062	434.7628479003906	39.16690063476562	1037.154296875	127.0605163574219	464.8050842285156	1127.12548828125	106.232048034668	726.5589599609375	1188.07763671875	121.6567611694336	49.49626922607422	1083.126220703125	127.6286849975586	350.0088500976562	1131.899169921875	183.6295166015625	47.41272735595703	1273.351928710938	220.8696594238281	41.51420593261719	1215.3544921875	108.1479187011719	37.83919143676758	1184.980224609375	167.36328125	50.58854293823242	1031.489501953125	526.5252075195312	818.273681640625	1201.969116210938	93.72835540771484	857.287353515625	1250.6240234375	nan	nan	nan	nan	nan	nan	nan	nan	nan	
511	5.100000000000001	238.5199432373047	978.3340454101562	1021.553100585938	365.8157653808594	975.7550048828125	1014.962341308594	299.0383911132812	1028.296752929688	1018.064819335938	327.8450317382812	1228.227783203125	1234.90234375	310.3663024902344	1146.85107421875	999.6514282226562	340.016845703125	1397.626098632812	1025.5498046875	334.8725891113281	1350.907592773438	1184.387573242188	266.6595458984375	1258.41064453125	989.9744873046875	439.0023803710938	1354.669799804688	1013.208801269531	498.045654296875	1375.092529296875	1096.274536132812	559.4093627929688	1253.165405273438	1075.623046875	568.7349853515625	1049.926147460938	1087.56689453125	506.3480529785156	1037.68212890625	1031.186889648438	575.1196899414062	801.1079711914062	1158.958740234375	574.125	945.3848266601562	1106.100463867188	514.1707763671875	656.7669067382812	1223.942138671875	565.3727416992188	731.9048461914062	1162.754760742188	538.4347534179688	741.2824096679688	1220.75341796875	177.3893127441406	1395.65087890625	1084.754150390625	112.3072280883789	1332.68359375	1078.442993164062	61.27935791015625	1069.737670898438	1110.113403320312	147.5471801757812	1053.599853515625	1075.291259765625	27.62108993530273	840.1559448242188	1216.871704101562	47.60487365722656	1006.073974609375	1143.235595703125	76.83485412597656	688.294677734375	1288.982055664062	74.60643005371094	761.3099365234375	1292.408569335938	24.63273620605469	759.465576171875	1242.576293945312	273.3432922363281	1615.050903320312	1066.627563476562	395.386474609375	1618.559936523438	1235.476318359375	295.0582885742188	1627.609985351562	1227.294799804688	416.419921875	1596.859741210938	1051.459594726562	472.0823059082031	919.6090087890625	1098.729736328125	132.0186157226562	926.3629150390625	1107.967529296875	180.8689270019531	956.2537231445312	1210.115844726562	420.6107177734375	949.525390625	1220.25	487.2022399902344	467.1148681640625	1140.380981445312	490.0899658203125	605.2886962890625	1143.893188476562	502.062744140625	42.88357162475586	1070.902221679688	507.2544555664062	253.1616973876953	1101.767700195312	436.0872497558594	64.03243255615234	1264.608276367188	395.0353088378906	37.63922500610352	1203.264892578125	511.5745544433594	41.44969177246094	1196.717163085938	434.8211975097656	39.19412994384766	1037.150390625	127.0949096679688	464.7466125488281	1127.83056640625	106.2175750732422	726.4781494140625	1188.623168945312	121.6874084472656	49.52519226074219	1083.156005859375	127.6637649536133	349.8823547363281	1132.415771484375	183.6496429443359	47.49699020385742	1273.312622070312	220.8972473144531	41.47457504272461	1215.342651367188	108.1880645751953	37.85533142089844	1184.991455078125	167.3936004638672	50.62569808959961	1031.495483398438	525.8253784179688	819.6270751953125	1203.975830078125	94.98484039306641	856.3684692382812	1249.822021484375	nan	nan	nan	nan	nan	nan	nan	nan	nan	
512	5.11	238.2022094726562	978.3350219726562	1022.09716796875	365.4862365722656	975.77197265625	1015.360656738281	298.72802734375	1028.3095703125	1018.541381835938	327.7575988769531	1228.172241210938	1235.36376953125	310.1845703125	1146.822021484375	1000.186584472656	339.657958984375	1397.63525390625	1025.975341796875	334.6291809082031	1350.904174804688	1184.773559570312	266.4643859863281	1258.378784179688	990.4526977539062	438.6891174316406	1354.737426757812	1013.554626464844	497.7643737792969	1375.157958984375	1096.574951171875	559.1994018554688	1253.291625976562	1075.799072265625	568.7871704101562	1050.051391601562	1087.948364257812	506.4296264648438	1037.743774414062	1031.358520507812	574.5528564453125	801.745361328125	1161.273681640625	574.0205688476562	945.5883178710938	1107.018920898438	513.018798828125	658.40185546875	1227.62158203125	564.5997924804688	732.658447265625	1165.712036132812	537.52197265625	742.7171020507812	1223.5078125	177.1123046875	1395.5078125	1085.282958984375	112.1184616088867	1332.47314453125	1078.893920898438	61.86635208129883	1069.210571289062	1110.051147460938	148.2307586669922	1053.504516601562	1075.1083984375	28.86745834350586	839.2501831054688	1216.02978515625	48.37068939208984	1005.480590820312	1142.9345703125	78.71896362304688	687.1235961914062	1287.337280273438	76.14761352539062	760.055908203125	1291.039672851562	26.12725639343262	758.3743286132812	1241.295288085938	273.0127258300781	1614.92919921875	1066.99072265625	395.0657958984375	1618.674438476562	1235.707763671875	294.7901306152344	1627.6474609375	1227.637329101562	416.0474548339844	1596.850830078125	1051.730590820312	471.6805725097656	919.4354248046875	1099.3154296875	131.8958282470703	926.3465576171875	1108.6787109375	180.8459625244141	956.16259765625	1210.791015625	420.5684204101562	949.3814086914062	1220.499267578125	487.1557006835938	467.1334838867188	1140.241455078125	490.0645751953125	605.3372192382812	1143.838989257812	502.1023864746094	42.84483337402344	1070.916381835938	507.3559265136719	253.1580657958984	1101.672607421875	436.0597229003906	63.90543365478516	1264.676025390625	395.0513000488281	37.66676712036133	1203.255981445312	511.60107421875	41.42709732055664	1196.712768554688	434.8730163574219	39.22007369995117	1037.148559570312	127.161376953125	464.7043151855469	1128.527587890625	106.2267761230469	726.3998413085938	1189.1357421875	121.723991394043	49.55745697021484	1083.186645507812	127.72509765625	349.7567749023438	1132.950805664062	183.6585540771484	47.5872917175293	1273.27783203125	220.9257202148438	41.43970108032227	1215.33154296875	108.2280731201172	37.87351226806641	1185.003051757812	167.4264221191406	50.66276931762695	1031.50244140625	525.1851806640625	820.9420166015625	1205.909301757812	96.23918151855469	855.46337890625	1248.969360351562	nan	nan	nan	nan	nan	nan	nan	nan	nan	
